<?xml version="1.0" encoding="utf-8"?>
<svg version="1.1" id="Layer_1" xmlns="http://www.w3.org/2000/svg" xmlns:xlink="http://www.w3.org/1999/xlink" x="0px" y="0px"
	 width="32px" height="32px" viewBox="0 0 32 32" enable-background="new 0 0 32 32" xml:space="preserve">
<path fill="#FDFDFD" d="M0,0v32h32V0H0z M8.842,12.784l-3.064,3.064c-0.512,0.512-1.133,1.289,0.012,2.434l0.92,0.92l-2.157,2.157
	L2.58,19.388c-1.334-1.333-1.628-3.219,0.34-5.187l3.255-3.254C7.35,9.772,5.92,8.081,5.452,7.613L7.61,5.455
	c0.468,0.468,2.159,1.896,3.333,0.723l3.273-3.273c1.969-1.968,3.777-1.71,5.168-0.32l1.971,1.972l-2.156,2.156l-0.92-0.919
	c-1.145-1.146-1.924-0.523-2.434-0.013l-3.047,3.048C11.021,10.572,9.82,9.633,8.953,8.92L8.916,8.955
	C9.648,9.803,10.586,11.008,8.842,12.784z M29.074,17.799l-3.256,3.254c-1.172,1.174,0.199,2.81,0.727,3.336l-2.158,2.158
	c-0.527-0.526-2.162-1.899-3.338-0.725l-3.273,3.273c-1.967,1.968-3.775,1.712-5.166,0.322l-1.973-1.973l2.158-2.157l0.92,0.92
	c1.146,1.147,1.92,0.522,2.432,0.011l3.049-3.048c1.777-1.741,2.979-0.803,3.848-0.09l0.035-0.035
	c-0.732-0.85-1.67-2.052,0.072-3.83l3.064-3.065c0.512-0.511,1.137-1.285-0.01-2.432l-0.92-0.921l2.156-2.156l2.027,2.027
	C30.746,13.946,31.039,15.832,29.074,17.799z"/>
</svg>
